<svg width="134" height="155" viewBox="0 0 134 155" fill="none" xmlns="http://www.w3.org/2000/svg">
<rect width="134" height="155" rx="8" fill="#F4F4F4"/>
<circle cx="67" cy="58" r="38" fill="#E4E4E4"/>
<path d="M54.375 82.75C52.5516 82.75 50.803 82.0257 49.5136 80.7364C48.2243 79.447 47.5 77.6984 47.5 75.875V65.875C47.5 64.0516 48.2243 62.303 49.5136 61.0136C50.803 59.7243 52.5516 59 54.375 59C56.1984 59 57.947 59.7243 59.2364 61.0136C60.5257 62.303 61.25 64.0516 61.25 65.875V75.875C61.25 77.6984 60.5257 79.447 59.2364 80.7364C57.947 82.0257 56.1984 82.75 54.375 82.75ZM54.375 62.75C53.5462 62.75 52.7513 63.0792 52.1653 63.6653C51.5792 64.2513 51.25 65.0462 51.25 65.875V75.875C51.25 76.7038 51.5792 77.4987 52.1653 78.0847C52.7513 78.6708 53.5462 79 54.375 79C55.2038 79 55.9987 78.6708 56.5847 78.0847C57.1708 77.4987 57.5 76.7038 57.5 75.875V65.875C57.5 65.0462 57.1708 64.2513 56.5847 63.6653C55.9987 63.0792 55.2038 62.75 54.375 62.75Z" fill="black"/>
<path d="M79.375 82.75C77.5516 82.75 75.803 82.0257 74.5136 80.7364C73.2243 79.447 72.5 77.6984 72.5 75.875V65.875C72.5 64.0516 73.2243 62.303 74.5136 61.0136C75.803 59.7243 77.5516 59 79.375 59C81.1984 59 82.947 59.7243 84.2364 61.0136C85.5257 62.303 86.25 64.0516 86.25 65.875V75.875C86.25 77.6984 85.5257 79.447 84.2364 80.7364C82.947 82.0257 81.1984 82.75 79.375 82.75ZM79.375 62.75C78.5462 62.75 77.7513 63.0792 77.1653 63.6653C76.5792 64.2513 76.25 65.0462 76.25 65.875V75.875C76.25 76.7038 76.5792 77.4987 77.1653 78.0847C77.7513 78.6708 78.5462 79 79.375 79C80.2038 79 80.9987 78.6708 81.5847 78.0847C82.1708 77.4987 82.5 76.7038 82.5 75.875V65.875C82.5 65.0462 82.1708 64.2513 81.5847 63.6653C80.9987 63.0792 80.2038 62.75 79.375 62.75Z" fill="black"/>
<path d="M91.875 72.75C91.3797 72.7435 90.9066 72.5439 90.5563 72.1937C90.2061 71.8434 90.0065 71.3703 90 70.875V60.875C90 54.7419 87.5636 48.8599 83.2268 44.5232C78.8901 40.1864 73.0081 37.75 66.875 37.75C60.7419 37.75 54.8599 40.1864 50.5232 44.5232C46.1864 48.8599 43.75 54.7419 43.75 60.875V70.875C43.75 71.3723 43.5525 71.8492 43.2008 72.2008C42.8492 72.5525 42.3723 72.75 41.875 72.75C41.3777 72.75 40.9008 72.5525 40.5492 72.2008C40.1975 71.8492 40 71.3723 40 70.875V60.875C40 53.7473 42.8315 46.9115 47.8715 41.8715C52.9115 36.8315 59.7473 34 66.875 34C74.0027 34 80.8385 36.8315 85.8785 41.8715C90.9185 46.9115 93.75 53.7473 93.75 60.875V70.875C93.7435 71.3703 93.5439 71.8434 93.1937 72.1937C92.8434 72.5439 92.3703 72.7435 91.875 72.75Z" fill="black"/>
<path d="M40.5139 115.454V128H38.8759V122.312H32.4859V128H30.8479V115.454H32.4859V120.962H38.8759V115.454H40.5139ZM52.3108 122.69C52.3108 123.002 52.2928 123.332 52.2568 123.68H44.3728C44.4328 124.652 44.7628 125.414 45.3628 125.966C45.9748 126.506 46.7128 126.776 47.5768 126.776C48.2848 126.776 48.8728 126.614 49.3408 126.29C49.8208 125.954 50.1568 125.51 50.3488 124.958H52.1128C51.8488 125.906 51.3208 126.68 50.5288 127.28C49.7368 127.868 48.7528 128.162 47.5768 128.162C46.6408 128.162 45.8008 127.952 45.0568 127.532C44.3248 127.112 43.7488 126.518 43.3288 125.75C42.9088 124.97 42.6988 124.07 42.6988 123.05C42.6988 122.03 42.9028 121.136 43.3108 120.368C43.7188 119.6 44.2888 119.012 45.0208 118.604C45.7648 118.184 46.6168 117.974 47.5768 117.974C48.5128 117.974 49.3408 118.178 50.0608 118.586C50.7808 118.994 51.3328 119.558 51.7168 120.278C52.1128 120.986 52.3108 121.79 52.3108 122.69ZM50.6188 122.348C50.6188 121.724 50.4808 121.19 50.2048 120.746C49.9288 120.29 49.5508 119.948 49.0708 119.72C48.6028 119.48 48.0808 119.36 47.5048 119.36C46.6768 119.36 45.9688 119.624 45.3808 120.152C44.8048 120.68 44.4748 121.412 44.3908 122.348H50.6188ZM53.8609 123.032C53.8609 122.024 54.0649 121.142 54.4729 120.386C54.8809 119.618 55.4389 119.024 56.1469 118.604C56.8669 118.184 57.6649 117.974 58.5409 117.974C59.4049 117.974 60.1549 118.16 60.7909 118.532C61.4269 118.904 61.9009 119.372 62.2129 119.936V118.136H63.8689V128H62.2129V126.164C61.8889 126.74 61.4029 127.22 60.7549 127.604C60.1189 127.976 59.3749 128.162 58.5229 128.162C57.6469 128.162 56.8549 127.946 56.1469 127.514C55.4389 127.082 54.8809 126.476 54.4729 125.696C54.0649 124.916 53.8609 124.028 53.8609 123.032ZM62.2129 123.05C62.2129 122.306 62.0629 121.658 61.7629 121.106C61.4629 120.554 61.0549 120.134 60.5389 119.846C60.0349 119.546 59.4769 119.396 58.8649 119.396C58.2529 119.396 57.6949 119.54 57.1909 119.828C56.6869 120.116 56.2849 120.536 55.9849 121.088C55.6849 121.64 55.5349 122.288 55.5349 123.032C55.5349 123.788 55.6849 124.448 55.9849 125.012C56.2849 125.564 56.6869 125.99 57.1909 126.29C57.6949 126.578 58.2529 126.722 58.8649 126.722C59.4769 126.722 60.0349 126.578 60.5389 126.29C61.0549 125.99 61.4629 125.564 61.7629 125.012C62.0629 124.448 62.2129 123.794 62.2129 123.05ZM66.025 123.032C66.025 122.024 66.229 121.142 66.637 120.386C67.045 119.618 67.603 119.024 68.311 118.604C69.031 118.184 69.835 117.974 70.723 117.974C71.491 117.974 72.205 118.154 72.865 118.514C73.525 118.862 74.029 119.324 74.377 119.9V114.68H76.033V128H74.377V126.146C74.053 126.734 73.573 127.22 72.937 127.604C72.301 127.976 71.557 128.162 70.705 128.162C69.829 128.162 69.031 127.946 68.311 127.514C67.603 127.082 67.045 126.476 66.637 125.696C66.229 124.916 66.025 124.028 66.025 123.032ZM74.377 123.05C74.377 122.306 74.227 121.658 73.927 121.106C73.627 120.554 73.219 120.134 72.703 119.846C72.199 119.546 71.641 119.396 71.029 119.396C70.417 119.396 69.859 119.54 69.355 119.828C68.851 120.116 68.449 120.536 68.149 121.088C67.849 121.64 67.699 122.288 67.699 123.032C67.699 123.788 67.849 124.448 68.149 125.012C68.449 125.564 68.851 125.99 69.355 126.29C69.859 126.578 70.417 126.722 71.029 126.722C71.641 126.722 72.199 126.578 72.703 126.29C73.219 125.99 73.627 125.564 73.927 125.012C74.227 124.448 74.377 123.794 74.377 123.05ZM82.293 128.162C81.537 128.162 80.859 128.036 80.259 127.784C79.659 127.52 79.185 127.16 78.837 126.704C78.489 126.236 78.297 125.702 78.261 125.102H79.953C80.001 125.594 80.229 125.996 80.637 126.308C81.057 126.62 81.603 126.776 82.275 126.776C82.899 126.776 83.391 126.638 83.751 126.362C84.111 126.086 84.291 125.738 84.291 125.318C84.291 124.886 84.099 124.568 83.715 124.364C83.331 124.148 82.737 123.938 81.933 123.734C81.201 123.542 80.601 123.35 80.133 123.158C79.677 122.954 79.281 122.66 78.945 122.276C78.621 121.88 78.459 121.364 78.459 120.728C78.459 120.224 78.609 119.762 78.909 119.342C79.209 118.922 79.635 118.592 80.187 118.352C80.739 118.1 81.369 117.974 82.077 117.974C83.169 117.974 84.051 118.25 84.723 118.802C85.395 119.354 85.755 120.11 85.803 121.07H84.165C84.129 120.554 83.919 120.14 83.535 119.828C83.163 119.516 82.659 119.36 82.023 119.36C81.435 119.36 80.967 119.486 80.619 119.738C80.271 119.99 80.097 120.32 80.097 120.728C80.097 121.052 80.199 121.322 80.403 121.538C80.619 121.742 80.883 121.91 81.195 122.042C81.519 122.162 81.963 122.3 82.527 122.456C83.235 122.648 83.811 122.84 84.255 123.032C84.699 123.212 85.077 123.488 85.389 123.86C85.713 124.232 85.881 124.718 85.893 125.318C85.893 125.858 85.743 126.344 85.443 126.776C85.143 127.208 84.717 127.55 84.165 127.802C83.625 128.042 83.001 128.162 82.293 128.162ZM97.2053 122.69C97.2053 123.002 97.1873 123.332 97.1513 123.68H89.2673C89.3273 124.652 89.6573 125.414 90.2573 125.966C90.8693 126.506 91.6073 126.776 92.4713 126.776C93.1793 126.776 93.7673 126.614 94.2353 126.29C94.7153 125.954 95.0513 125.51 95.2433 124.958H97.0073C96.7433 125.906 96.2153 126.68 95.4233 127.28C94.6313 127.868 93.6473 128.162 92.4713 128.162C91.5353 128.162 90.6953 127.952 89.9513 127.532C89.2193 127.112 88.6433 126.518 88.2233 125.75C87.8033 124.97 87.5933 124.07 87.5933 123.05C87.5933 122.03 87.7973 121.136 88.2053 120.368C88.6133 119.6 89.1833 119.012 89.9153 118.604C90.6593 118.184 91.5113 117.974 92.4713 117.974C93.4073 117.974 94.2353 118.178 94.9553 118.586C95.6753 118.994 96.2273 119.558 96.6113 120.278C97.0073 120.986 97.2053 121.79 97.2053 122.69ZM95.5133 122.348C95.5133 121.724 95.3753 121.19 95.0993 120.746C94.8233 120.29 94.4453 119.948 93.9653 119.72C93.4973 119.48 92.9753 119.36 92.3993 119.36C91.5713 119.36 90.8633 119.624 90.2753 120.152C89.6993 120.68 89.3693 121.412 89.2853 122.348H95.5133ZM101.365 119.486V125.3C101.365 125.78 101.467 126.122 101.671 126.326C101.875 126.518 102.229 126.614 102.733 126.614H103.939V128H102.463C101.551 128 100.867 127.79 100.411 127.37C99.9554 126.95 99.7274 126.26 99.7274 125.3V119.486H98.4494V118.136H99.7274V115.652H101.365V118.136H103.939V119.486H101.365Z" fill="#0C0D36"/>
</svg>
