<svg width="134" height="155" viewBox="0 0 134 155" fill="none" xmlns="http://www.w3.org/2000/svg">
<rect width="134" height="155" rx="8" fill="#F4F4F4"/>
<circle cx="67" cy="58" r="38" fill="#E4E4E4"/>
<path d="M83.55 73.875H50.45C47.716 73.875 45.0935 72.7906 43.1579 70.8597C41.2224 68.9288 40.1316 66.309 40.125 63.575V42.425C40.1316 39.691 41.2224 37.0712 43.1579 35.1403C45.0935 33.2094 47.716 32.125 50.45 32.125H83.55C86.284 32.125 88.9065 33.2094 90.8421 35.1403C92.7776 37.0712 93.8684 39.691 93.875 42.425V63.575C93.8684 66.309 92.7776 68.9288 90.8421 70.8597C88.9065 72.7906 86.284 73.875 83.55 73.875ZM50.45 35.875C48.7105 35.875 47.0419 36.5643 45.8096 37.7919C44.5773 39.0196 43.8816 40.6855 43.875 42.425V63.575C43.8816 65.3145 44.5773 66.9804 45.8096 68.2081C47.0419 69.4357 48.7105 70.125 50.45 70.125H83.55C85.2895 70.125 86.9581 69.4357 88.1904 68.2081C89.4227 66.9804 90.1184 65.3145 90.125 63.575V42.425C90.1184 40.6855 89.4227 39.0196 88.1904 37.7919C86.9581 36.5643 85.2895 35.875 83.55 35.875H50.45Z" fill="black"/>
<path d="M67 83.875C66.5027 83.875 66.0258 83.6775 65.6742 83.3258C65.3225 82.9742 65.125 82.4973 65.125 82V72C65.125 71.5027 65.3225 71.0258 65.6742 70.6742C66.0258 70.3225 66.5027 70.125 67 70.125C67.4973 70.125 67.9742 70.3225 68.3258 70.6742C68.6775 71.0258 68.875 71.5027 68.875 72V82C68.875 82.4973 68.6775 82.9742 68.3258 83.3258C67.9742 83.6775 67.4973 83.875 67 83.875Z" fill="black"/>
<path d="M82 83.875H52C51.5027 83.875 51.0258 83.6775 50.6742 83.3258C50.3225 82.9742 50.125 82.4973 50.125 82C50.125 81.5027 50.3225 81.0258 50.6742 80.6742C51.0258 80.3225 51.5027 80.125 52 80.125H82C82.4973 80.125 82.9742 80.3225 83.3258 80.6742C83.6775 81.0258 83.875 81.5027 83.875 82C83.875 82.4973 83.6775 82.9742 83.3258 83.3258C82.9742 83.6775 82.4973 83.875 82 83.875Z" fill="black"/>
<path d="M47.239 115.544V128H45.601V118.712L41.461 128H40.309L36.151 118.694V128H34.513V115.544H36.277L40.885 125.84L45.493 115.544H47.239ZM54.3189 128.162C53.3949 128.162 52.5549 127.952 51.7989 127.532C51.0549 127.112 50.4669 126.518 50.0349 125.75C49.6149 124.97 49.4049 124.07 49.4049 123.05C49.4049 122.042 49.6209 121.154 50.0529 120.386C50.4969 119.606 51.0969 119.012 51.8529 118.604C52.6089 118.184 53.4549 117.974 54.3909 117.974C55.3269 117.974 56.1729 118.184 56.9289 118.604C57.6849 119.012 58.2789 119.6 58.7109 120.368C59.1549 121.136 59.3769 122.03 59.3769 123.05C59.3769 124.07 59.1489 124.97 58.6929 125.75C58.2489 126.518 57.6429 127.112 56.8749 127.532C56.1069 127.952 55.2549 128.162 54.3189 128.162ZM54.3189 126.722C54.9069 126.722 55.4589 126.584 55.9749 126.308C56.4909 126.032 56.9049 125.618 57.2169 125.066C57.5409 124.514 57.7029 123.842 57.7029 123.05C57.7029 122.258 57.5469 121.586 57.2349 121.034C56.9229 120.482 56.5149 120.074 56.0109 119.81C55.5069 119.534 54.9609 119.396 54.3729 119.396C53.7729 119.396 53.2209 119.534 52.7169 119.81C52.2249 120.074 51.8289 120.482 51.5289 121.034C51.2289 121.586 51.0789 122.258 51.0789 123.05C51.0789 123.854 51.2229 124.532 51.5109 125.084C51.8109 125.636 52.2069 126.05 52.6989 126.326C53.1909 126.59 53.7309 126.722 54.3189 126.722ZM66.3365 117.956C67.5365 117.956 68.5085 118.322 69.2525 119.054C69.9965 119.774 70.3685 120.818 70.3685 122.186V128H68.7485V122.42C68.7485 121.436 68.5025 120.686 68.0105 120.17C67.5185 119.642 66.8465 119.378 65.9945 119.378C65.1305 119.378 64.4405 119.648 63.9245 120.188C63.4205 120.728 63.1685 121.514 63.1685 122.546V128H61.5305V118.136H63.1685V119.54C63.4925 119.036 63.9305 118.646 64.4825 118.37C65.0465 118.094 65.6645 117.956 66.3365 117.956ZM73.8902 116.534C73.5782 116.534 73.3142 116.426 73.0982 116.21C72.8822 115.994 72.7742 115.73 72.7742 115.418C72.7742 115.106 72.8822 114.842 73.0982 114.626C73.3142 114.41 73.5782 114.302 73.8902 114.302C74.1902 114.302 74.4422 114.41 74.6462 114.626C74.8622 114.842 74.9702 115.106 74.9702 115.418C74.9702 115.73 74.8622 115.994 74.6462 116.21C74.4422 116.426 74.1902 116.534 73.8902 116.534ZM74.6822 118.136V128H73.0442V118.136H74.6822ZM79.4719 119.486V125.3C79.4719 125.78 79.5739 126.122 79.7779 126.326C79.9819 126.518 80.3359 126.614 80.8399 126.614H82.0459V128H80.5699C79.6579 128 78.9739 127.79 78.5179 127.37C78.0619 126.95 77.8339 126.26 77.8339 125.3V119.486H76.5559V118.136H77.8339V115.652H79.4719V118.136H82.0459V119.486H79.4719ZM88.3325 128.162C87.4085 128.162 86.5685 127.952 85.8125 127.532C85.0685 127.112 84.4805 126.518 84.0485 125.75C83.6285 124.97 83.4185 124.07 83.4185 123.05C83.4185 122.042 83.6345 121.154 84.0665 120.386C84.5105 119.606 85.1105 119.012 85.8665 118.604C86.6225 118.184 87.4685 117.974 88.4045 117.974C89.3405 117.974 90.1865 118.184 90.9425 118.604C91.6985 119.012 92.2925 119.6 92.7245 120.368C93.1685 121.136 93.3905 122.03 93.3905 123.05C93.3905 124.07 93.1625 124.97 92.7065 125.75C92.2625 126.518 91.6565 127.112 90.8885 127.532C90.1205 127.952 89.2685 128.162 88.3325 128.162ZM88.3325 126.722C88.9205 126.722 89.4725 126.584 89.9885 126.308C90.5045 126.032 90.9185 125.618 91.2305 125.066C91.5545 124.514 91.7165 123.842 91.7165 123.05C91.7165 122.258 91.5605 121.586 91.2485 121.034C90.9365 120.482 90.5285 120.074 90.0245 119.81C89.5205 119.534 88.9745 119.396 88.3865 119.396C87.7865 119.396 87.2345 119.534 86.7305 119.81C86.2385 120.074 85.8425 120.482 85.5425 121.034C85.2425 121.586 85.0925 122.258 85.0925 123.05C85.0925 123.854 85.2365 124.532 85.5245 125.084C85.8245 125.636 86.2205 126.05 86.7125 126.326C87.2045 126.59 87.7445 126.722 88.3325 126.722ZM97.1822 119.738C97.4702 119.174 97.8782 118.736 98.4062 118.424C98.9462 118.112 99.6002 117.956 100.368 117.956V119.648H99.9362C98.1002 119.648 97.1822 120.644 97.1822 122.636V128H95.5442V118.136H97.1822V119.738Z" fill="#0C0D36"/>
</svg>
