<svg width="134" height="155" viewBox="0 0 134 155" fill="none" xmlns="http://www.w3.org/2000/svg">
<rect width="134" height="155" rx="8" fill="#F4F4F4"/>
<circle cx="67" cy="58" r="38" fill="#E4E4E4"/>
<path d="M84.375 76.25H49.375C46.8886 76.25 44.504 75.2623 42.7459 73.5041C40.9877 71.746 40 69.3614 40 66.875V49.375C40 46.8886 40.9877 44.504 42.7459 42.7459C44.504 40.9877 46.8886 40 49.375 40H84.375C86.8614 40 89.246 40.9877 91.0041 42.7459C92.7623 44.504 93.75 46.8886 93.75 49.375V66.875C93.75 69.3614 92.7623 71.746 91.0041 73.5041C89.246 75.2623 86.8614 76.25 84.375 76.25ZM49.375 43.75C47.8832 43.75 46.4524 44.3426 45.3975 45.3975C44.3426 46.4524 43.75 47.8832 43.75 49.375V66.875C43.75 68.3668 44.3426 69.7976 45.3975 70.8525C46.4524 71.9074 47.8832 72.5 49.375 72.5H84.375C85.8668 72.5 87.2976 71.9074 88.3525 70.8525C89.4074 69.7976 90 68.3668 90 66.875V49.375C90 47.8832 89.4074 46.4524 88.3525 45.3975C87.2976 44.3426 85.8668 43.75 84.375 43.75H49.375Z" fill="black"/>
<path d="M61.875 66.25H51.875C51.3777 66.25 50.9008 66.0525 50.5492 65.7008C50.1975 65.3492 50 64.8723 50 64.375C50 63.8777 50.1975 63.4008 50.5492 63.0492C50.9008 62.6975 51.3777 62.5 51.875 62.5H61.875C62.3723 62.5 62.8492 62.6975 63.2008 63.0492C63.5525 63.4008 63.75 63.8777 63.75 64.375C63.75 64.8723 63.5525 65.3492 63.2008 65.7008C62.8492 66.0525 62.3723 66.25 61.875 66.25Z" fill="black"/>
<path d="M76.875 66.25H69.375C68.8777 66.25 68.4008 66.0525 68.0492 65.7008C67.6975 65.3492 67.5 64.8723 67.5 64.375C67.5 63.8777 67.6975 63.4008 68.0492 63.0492C68.4008 62.6975 68.8777 62.5 69.375 62.5H76.875C77.3723 62.5 77.8492 62.6975 78.2008 63.0492C78.5525 63.4008 78.75 63.8777 78.75 64.375C78.75 64.8723 78.5525 65.3492 78.2008 65.7008C77.8492 66.0525 77.3723 66.25 76.875 66.25Z" fill="black"/>
<path d="M32.2896 128L27.1236 122.276V128H25.4856V115.454H27.1236V121.268L32.3076 115.454H34.3776L28.6896 121.736L34.4316 128H32.2896ZM45.261 122.69C45.261 123.002 45.243 123.332 45.207 123.68H37.323C37.383 124.652 37.713 125.414 38.313 125.966C38.925 126.506 39.663 126.776 40.527 126.776C41.235 126.776 41.823 126.614 42.291 126.29C42.771 125.954 43.107 125.51 43.299 124.958H45.063C44.799 125.906 44.271 126.68 43.479 127.28C42.687 127.868 41.703 128.162 40.527 128.162C39.591 128.162 38.751 127.952 38.007 127.532C37.275 127.112 36.699 126.518 36.279 125.75C35.859 124.97 35.649 124.07 35.649 123.05C35.649 122.03 35.853 121.136 36.261 120.368C36.669 119.6 37.239 119.012 37.971 118.604C38.715 118.184 39.567 117.974 40.527 117.974C41.463 117.974 42.291 118.178 43.011 118.586C43.731 118.994 44.283 119.558 44.667 120.278C45.063 120.986 45.261 121.79 45.261 122.69ZM43.569 122.348C43.569 121.724 43.431 121.19 43.155 120.746C42.879 120.29 42.501 119.948 42.021 119.72C41.553 119.48 41.031 119.36 40.455 119.36C39.627 119.36 38.919 119.624 38.331 120.152C37.755 120.68 37.425 121.412 37.341 122.348H43.569ZM55.9191 118.136L49.9791 132.644H48.2871L50.2311 127.892L46.2531 118.136H48.0711L51.1671 126.128L54.2271 118.136H55.9191ZM59.2037 119.972C59.5397 119.384 60.0317 118.904 60.6797 118.532C61.3277 118.16 62.0657 117.974 62.8937 117.974C63.7817 117.974 64.5797 118.184 65.2877 118.604C65.9957 119.024 66.5537 119.618 66.9617 120.386C67.3697 121.142 67.5737 122.024 67.5737 123.032C67.5737 124.028 67.3697 124.916 66.9617 125.696C66.5537 126.476 65.9897 127.082 65.2697 127.514C64.5617 127.946 63.7697 128.162 62.8937 128.162C62.0417 128.162 61.2917 127.976 60.6437 127.604C60.0077 127.232 59.5277 126.758 59.2037 126.182V128H57.5657V114.68H59.2037V119.972ZM65.8997 123.032C65.8997 122.288 65.7497 121.64 65.4497 121.088C65.1497 120.536 64.7417 120.116 64.2257 119.828C63.7217 119.54 63.1637 119.396 62.5517 119.396C61.9517 119.396 61.3937 119.546 60.8777 119.846C60.3737 120.134 59.9657 120.56 59.6537 121.124C59.3537 121.676 59.2037 122.318 59.2037 123.05C59.2037 123.794 59.3537 124.448 59.6537 125.012C59.9657 125.564 60.3737 125.99 60.8777 126.29C61.3937 126.578 61.9517 126.722 62.5517 126.722C63.1637 126.722 63.7217 126.578 64.2257 126.29C64.7417 125.99 65.1497 125.564 65.4497 125.012C65.7497 124.448 65.8997 123.788 65.8997 123.032ZM74.0318 128.162C73.1078 128.162 72.2678 127.952 71.5118 127.532C70.7678 127.112 70.1798 126.518 69.7478 125.75C69.3278 124.97 69.1178 124.07 69.1178 123.05C69.1178 122.042 69.3338 121.154 69.7658 120.386C70.2098 119.606 70.8098 119.012 71.5658 118.604C72.3218 118.184 73.1678 117.974 74.1038 117.974C75.0398 117.974 75.8858 118.184 76.6418 118.604C77.3978 119.012 77.9918 119.6 78.4238 120.368C78.8678 121.136 79.0898 122.03 79.0898 123.05C79.0898 124.07 78.8618 124.97 78.4058 125.75C77.9618 126.518 77.3558 127.112 76.5878 127.532C75.8198 127.952 74.9678 128.162 74.0318 128.162ZM74.0318 126.722C74.6198 126.722 75.1718 126.584 75.6878 126.308C76.2038 126.032 76.6178 125.618 76.9298 125.066C77.2538 124.514 77.4158 123.842 77.4158 123.05C77.4158 122.258 77.2598 121.586 76.9478 121.034C76.6358 120.482 76.2278 120.074 75.7238 119.81C75.2198 119.534 74.6738 119.396 74.0858 119.396C73.4858 119.396 72.9338 119.534 72.4298 119.81C71.9378 120.074 71.5418 120.482 71.2418 121.034C70.9418 121.586 70.7918 122.258 70.7918 123.05C70.7918 123.854 70.9358 124.532 71.2238 125.084C71.5238 125.636 71.9198 126.05 72.4118 126.326C72.9038 126.59 73.4438 126.722 74.0318 126.722ZM80.6314 123.032C80.6314 122.024 80.8354 121.142 81.2434 120.386C81.6514 119.618 82.2094 119.024 82.9174 118.604C83.6374 118.184 84.4354 117.974 85.3114 117.974C86.1754 117.974 86.9254 118.16 87.5614 118.532C88.1974 118.904 88.6714 119.372 88.9834 119.936V118.136H90.6394V128H88.9834V126.164C88.6594 126.74 88.1734 127.22 87.5254 127.604C86.8894 127.976 86.1454 128.162 85.2934 128.162C84.4174 128.162 83.6254 127.946 82.9174 127.514C82.2094 127.082 81.6514 126.476 81.2434 125.696C80.8354 124.916 80.6314 124.028 80.6314 123.032ZM88.9834 123.05C88.9834 122.306 88.8334 121.658 88.5334 121.106C88.2334 120.554 87.8254 120.134 87.3094 119.846C86.8054 119.546 86.2474 119.396 85.6354 119.396C85.0234 119.396 84.4654 119.54 83.9614 119.828C83.4574 120.116 83.0554 120.536 82.7554 121.088C82.4554 121.64 82.3054 122.288 82.3054 123.032C82.3054 123.788 82.4554 124.448 82.7554 125.012C83.0554 125.564 83.4574 125.99 83.9614 126.29C84.4654 126.578 85.0234 126.722 85.6354 126.722C86.2474 126.722 86.8054 126.578 87.3094 126.29C87.8254 125.99 88.2334 125.564 88.5334 125.012C88.8334 124.448 88.9834 123.794 88.9834 123.05ZM95.0455 119.738C95.3335 119.174 95.7415 118.736 96.2695 118.424C96.8095 118.112 97.4635 117.956 98.2315 117.956V119.648H97.7995C95.9635 119.648 95.0455 120.644 95.0455 122.636V128H93.4075V118.136H95.0455V119.738ZM99.5103 123.032C99.5103 122.024 99.7143 121.142 100.122 120.386C100.53 119.618 101.088 119.024 101.796 118.604C102.516 118.184 103.32 117.974 104.208 117.974C104.976 117.974 105.69 118.154 106.35 118.514C107.01 118.862 107.514 119.324 107.862 119.9V114.68H109.518V128H107.862V126.146C107.538 126.734 107.058 127.22 106.422 127.604C105.786 127.976 105.042 128.162 104.19 128.162C103.314 128.162 102.516 127.946 101.796 127.514C101.088 127.082 100.53 126.476 100.122 125.696C99.7143 124.916 99.5103 124.028 99.5103 123.032ZM107.862 123.05C107.862 122.306 107.712 121.658 107.412 121.106C107.112 120.554 106.704 120.134 106.188 119.846C105.684 119.546 105.126 119.396 104.514 119.396C103.902 119.396 103.344 119.54 102.84 119.828C102.336 120.116 101.934 120.536 101.634 121.088C101.334 121.64 101.184 122.288 101.184 123.032C101.184 123.788 101.334 124.448 101.634 125.012C101.934 125.564 102.336 125.99 102.84 126.29C103.344 126.578 103.902 126.722 104.514 126.722C105.126 126.722 105.684 126.578 106.188 126.29C106.704 125.99 107.112 125.564 107.412 125.012C107.712 124.448 107.862 123.794 107.862 123.05Z" fill="#0C0D36"/>
</svg>
