<svg width="134" height="155" viewBox="0 0 134 155" fill="none" xmlns="http://www.w3.org/2000/svg">
<rect width="134" height="155" rx="8" fill="#F4F4F4"/>
<circle cx="67" cy="58" r="38" fill="#E4E4E4"/>
<path d="M68.25 83C63.8849 82.9934 59.7009 81.2547 56.6166 78.1658C53.5324 75.0768 51.8 70.8901 51.8 66.525V50.275C51.8 48.1148 52.2255 45.9757 53.0522 43.9799C53.8789 41.9841 55.0906 40.1706 56.6181 38.6431C58.1457 37.1156 59.9591 35.9039 61.9549 35.0772C63.9507 34.2505 66.0898 33.825 68.25 33.825C70.4103 33.825 72.5494 34.2505 74.5452 35.0772C76.541 35.9039 78.3544 37.1156 79.882 38.6431C81.4095 40.1706 82.6212 41.9841 83.4479 43.9799C84.2746 45.9757 84.7001 48.1148 84.7001 50.275V66.525C84.7001 70.8901 82.9677 75.0768 79.8835 78.1658C76.7992 81.2547 72.6152 82.9934 68.25 83ZM68.25 37.575C64.8838 37.5816 61.6574 38.9218 59.2771 41.3021C56.8968 43.6823 55.5567 46.9088 55.55 50.275V66.525C55.55 68.1928 55.8785 69.8443 56.5168 71.3851C57.155 72.9259 58.0905 74.326 59.2698 75.5053C60.4491 76.6846 61.8491 77.62 63.39 78.2583C64.9308 78.8965 66.5823 79.225 68.25 79.225C69.9178 79.225 71.5693 78.8965 73.1101 78.2583C74.651 77.62 76.051 76.6846 77.2303 75.5053C78.4096 74.326 79.3451 72.9259 79.9833 71.3851C80.6216 69.8443 80.9501 68.1928 80.9501 66.525V50.275C80.9434 46.9088 79.6033 43.6823 77.223 41.3021C74.8427 38.9218 71.6163 37.5816 68.25 37.575Z" fill="black"/>
<path d="M68.25 57.3C67.7527 57.3 67.2758 57.1024 66.9242 56.7508C66.5725 56.3992 66.375 55.9223 66.375 55.425V48.55C66.375 48.3038 66.4235 48.0599 66.5177 47.8325C66.612 47.605 66.7501 47.3983 66.9242 47.2242C67.0983 47.0501 67.305 46.9119 67.5325 46.8177C67.76 46.7235 68.0038 46.675 68.25 46.675C68.4962 46.675 68.74 46.7235 68.9675 46.8177C69.195 46.9119 69.4017 47.0501 69.5758 47.2242C69.7499 47.3983 69.888 47.605 69.9823 47.8325C70.0765 48.0599 70.125 48.3038 70.125 48.55V55.5C70.1056 55.9842 69.8996 56.442 69.55 56.7776C69.2004 57.1132 68.7346 57.3004 68.25 57.3Z" fill="black"/>
<path d="M51.5632 115.544V128H49.9252V118.712L45.7852 128H44.6332L40.4752 118.694V128H38.8372V115.544H40.6012L45.2092 125.84L49.8172 115.544H51.5632ZM58.6431 128.162C57.7191 128.162 56.8791 127.952 56.1231 127.532C55.3791 127.112 54.7911 126.518 54.3591 125.75C53.9391 124.97 53.7291 124.07 53.7291 123.05C53.7291 122.042 53.9451 121.154 54.3771 120.386C54.8211 119.606 55.4211 119.012 56.1771 118.604C56.9331 118.184 57.7791 117.974 58.7151 117.974C59.6511 117.974 60.4971 118.184 61.2531 118.604C62.0091 119.012 62.6031 119.6 63.0351 120.368C63.4791 121.136 63.7011 122.03 63.7011 123.05C63.7011 124.07 63.4731 124.97 63.0171 125.75C62.5731 126.518 61.9671 127.112 61.1991 127.532C60.4311 127.952 59.5791 128.162 58.6431 128.162ZM58.6431 126.722C59.2311 126.722 59.7831 126.584 60.2991 126.308C60.8151 126.032 61.2291 125.618 61.5411 125.066C61.8651 124.514 62.0271 123.842 62.0271 123.05C62.0271 122.258 61.8711 121.586 61.5591 121.034C61.2471 120.482 60.8391 120.074 60.3351 119.81C59.8311 119.534 59.2851 119.396 58.6971 119.396C58.0971 119.396 57.5451 119.534 57.0411 119.81C56.5491 120.074 56.1531 120.482 55.8531 121.034C55.5531 121.586 55.4031 122.258 55.4031 123.05C55.4031 123.854 55.5471 124.532 55.8351 125.084C56.1351 125.636 56.5311 126.05 57.0231 126.326C57.5151 126.59 58.0551 126.722 58.6431 126.722ZM74.6028 118.136V128H72.9648V126.542C72.6528 127.046 72.2148 127.442 71.6508 127.73C71.0988 128.006 70.4868 128.144 69.8148 128.144C69.0468 128.144 68.3568 127.988 67.7448 127.676C67.1328 127.352 66.6468 126.872 66.2868 126.236C65.9388 125.6 65.7648 124.826 65.7648 123.914V118.136H67.3848V123.698C67.3848 124.67 67.6308 125.42 68.1228 125.948C68.6148 126.464 69.2868 126.722 70.1388 126.722C71.0148 126.722 71.7048 126.452 72.2088 125.912C72.7128 125.372 72.9648 124.586 72.9648 123.554V118.136H74.6028ZM80.8604 128.162C80.1044 128.162 79.4264 128.036 78.8264 127.784C78.2264 127.52 77.7524 127.16 77.4044 126.704C77.0564 126.236 76.8644 125.702 76.8284 125.102H78.5204C78.5684 125.594 78.7964 125.996 79.2044 126.308C79.6244 126.62 80.1704 126.776 80.8424 126.776C81.4664 126.776 81.9584 126.638 82.3184 126.362C82.6784 126.086 82.8584 125.738 82.8584 125.318C82.8584 124.886 82.6664 124.568 82.2824 124.364C81.8984 124.148 81.3044 123.938 80.5004 123.734C79.7684 123.542 79.1684 123.35 78.7004 123.158C78.2444 122.954 77.8484 122.66 77.5124 122.276C77.1884 121.88 77.0264 121.364 77.0264 120.728C77.0264 120.224 77.1764 119.762 77.4764 119.342C77.7764 118.922 78.2024 118.592 78.7544 118.352C79.3064 118.1 79.9364 117.974 80.6444 117.974C81.7364 117.974 82.6184 118.25 83.2904 118.802C83.9624 119.354 84.3224 120.11 84.3704 121.07H82.7324C82.6964 120.554 82.4864 120.14 82.1024 119.828C81.7304 119.516 81.2264 119.36 80.5904 119.36C80.0024 119.36 79.5344 119.486 79.1864 119.738C78.8384 119.99 78.6644 120.32 78.6644 120.728C78.6644 121.052 78.7664 121.322 78.9704 121.538C79.1864 121.742 79.4504 121.91 79.7624 122.042C80.0864 122.162 80.5304 122.3 81.0944 122.456C81.8024 122.648 82.3784 122.84 82.8224 123.032C83.2664 123.212 83.6444 123.488 83.9564 123.86C84.2804 124.232 84.4484 124.718 84.4604 125.318C84.4604 125.858 84.3104 126.344 84.0104 126.776C83.7104 127.208 83.2844 127.55 82.7324 127.802C82.1924 128.042 81.5684 128.162 80.8604 128.162ZM95.7727 122.69C95.7727 123.002 95.7547 123.332 95.7187 123.68H87.8347C87.8947 124.652 88.2247 125.414 88.8247 125.966C89.4367 126.506 90.1747 126.776 91.0387 126.776C91.7467 126.776 92.3347 126.614 92.8027 126.29C93.2827 125.954 93.6187 125.51 93.8107 124.958H95.5747C95.3107 125.906 94.7827 126.68 93.9907 127.28C93.1987 127.868 92.2147 128.162 91.0387 128.162C90.1027 128.162 89.2627 127.952 88.5187 127.532C87.7867 127.112 87.2107 126.518 86.7907 125.75C86.3707 124.97 86.1607 124.07 86.1607 123.05C86.1607 122.03 86.3647 121.136 86.7727 120.368C87.1807 119.6 87.7507 119.012 88.4827 118.604C89.2267 118.184 90.0787 117.974 91.0387 117.974C91.9747 117.974 92.8027 118.178 93.5227 118.586C94.2427 118.994 94.7947 119.558 95.1787 120.278C95.5747 120.986 95.7727 121.79 95.7727 122.69ZM94.0807 122.348C94.0807 121.724 93.9427 121.19 93.6667 120.746C93.3907 120.29 93.0127 119.948 92.5327 119.72C92.0647 119.48 91.5427 119.36 90.9667 119.36C90.1387 119.36 89.4307 119.624 88.8427 120.152C88.2667 120.68 87.9367 121.412 87.8527 122.348H94.0807Z" fill="#0C0D36"/>
</svg>
