<svg width="134" height="155" viewBox="0 0 134 155" fill="none" xmlns="http://www.w3.org/2000/svg">
<rect width="134" height="155" rx="8" fill="#F4F4F4"/>
<circle cx="69" cy="59" r="38" fill="#E4E4E4"/>
<path d="M88.875 75.75H48.875C48.3797 75.7435 47.9066 75.5439 47.5563 75.1937C47.2061 74.8434 47.0065 74.3703 47 73.875V61.375C47 58.8886 47.9877 56.504 49.7459 54.7459C51.504 52.9877 53.8886 52 56.375 52H81.375C83.8614 52 86.246 52.9877 88.0041 54.7459C89.7623 56.504 90.75 58.8886 90.75 61.375V73.875C90.7435 74.3703 90.5439 74.8434 90.1937 75.1937C89.8434 75.5439 89.3703 75.7435 88.875 75.75ZM50.75 72H87V61.375C87 59.8832 86.4074 58.4524 85.3525 57.3975C84.2976 56.3426 82.8668 55.75 81.375 55.75H56.375C54.8832 55.75 53.4524 56.3426 52.3975 57.3975C51.3426 58.4524 50.75 59.8832 50.75 61.375V72Z" fill="black"/>
<path d="M57.625 83.25C56.1332 83.25 54.7024 82.6574 53.6475 81.6025C52.5926 80.5476 52 79.1168 52 77.625V73.875C52 73.3777 52.1975 72.9008 52.5492 72.5492C52.9008 72.1975 53.3777 72 53.875 72C54.3723 72 54.8492 72.1975 55.2008 72.5492C55.5525 72.9008 55.75 73.3777 55.75 73.875V77.625C55.75 78.1223 55.9475 78.5992 56.2992 78.9508C56.6508 79.3025 57.1277 79.5 57.625 79.5C58.1223 79.5 58.5992 79.3025 58.9508 78.9508C59.3025 78.5992 59.5 78.1223 59.5 77.625V73.875C59.5 73.3777 59.6975 72.9008 60.0492 72.5492C60.4008 72.1975 60.8777 72 61.375 72C61.8723 72 62.3492 72.1975 62.7008 72.5492C63.0525 72.9008 63.25 73.3777 63.25 73.875V77.625C63.25 79.1168 62.6574 80.5476 61.6025 81.6025C60.5476 82.6574 59.1168 83.25 57.625 83.25Z" fill="black"/>
<path d="M80.125 83.25C78.6332 83.25 77.2024 82.6574 76.1475 81.6025C75.0926 80.5476 74.5 79.1168 74.5 77.625V73.875C74.5 73.3777 74.6975 72.9008 75.0492 72.5492C75.4008 72.1975 75.8777 72 76.375 72C76.8723 72 77.3492 72.1975 77.7008 72.5492C78.0525 72.9008 78.25 73.3777 78.25 73.875V77.625C78.25 78.1223 78.4475 78.5992 78.7992 78.9508C79.1508 79.3025 79.6277 79.5 80.125 79.5C80.6223 79.5 81.0992 79.3025 81.4508 78.9508C81.8025 78.5992 82 78.1223 82 77.625V73.875C82 73.3777 82.1975 72.9008 82.5492 72.5492C82.9008 72.1975 83.3777 72 83.875 72C84.3723 72 84.8492 72.1975 85.2008 72.5492C85.5525 72.9008 85.75 73.3777 85.75 73.875V77.625C85.75 79.1168 85.1574 80.5476 84.1025 81.6025C83.0476 82.6574 81.6168 83.25 80.125 83.25Z" fill="black"/>
<path d="M58.875 65.75C58.6256 65.7508 58.3787 65.6997 58.15 65.6C57.6974 65.4123 57.3378 65.0526 57.15 64.6C57.0503 64.3714 56.9992 64.1245 57 63.875C57.0197 63.404 57.2161 62.9577 57.55 62.625C57.7234 62.4555 57.9269 62.3199 58.15 62.225C58.3789 62.1259 58.6256 62.0748 58.875 62.0748C59.1244 62.0748 59.3711 62.1259 59.6 62.225C59.8231 62.3199 60.0266 62.4555 60.2 62.625C60.5517 62.9763 60.7496 63.4529 60.75 63.95C60.7508 64.1995 60.6997 64.4464 60.6 64.675C60.4123 65.1276 60.0526 65.4873 59.6 65.675C59.3656 65.7472 59.1193 65.7727 58.875 65.75Z" fill="black"/>
<path d="M78.875 65.75C78.6258 65.7487 78.3793 65.6977 78.15 65.6C77.6974 65.4123 77.3378 65.0526 77.15 64.6C77.0503 64.3713 76.9992 64.1245 77 63.875C77.0004 63.3779 77.1983 62.9013 77.55 62.55C77.7234 62.3805 77.9269 62.2449 78.15 62.15C78.3789 62.0509 78.6256 61.9998 78.875 61.9998C79.1244 61.9998 79.3711 62.0509 79.6 62.15C79.8231 62.2449 80.0266 62.3805 80.2 62.55C80.5511 62.9016 80.7484 63.3781 80.7484 63.875C80.7484 64.3719 80.5511 64.8484 80.2 65.2C80.0266 65.3695 79.8231 65.5051 79.6 65.6C79.3713 65.6997 79.1245 65.7508 78.875 65.75Z" fill="black"/>
<path d="M83.875 55.75H53.875C53.3797 55.7435 52.9066 55.5439 52.5563 55.1937C52.2061 54.8434 52.0065 54.3703 52 53.875V46.375C52 43.8886 52.9877 41.504 54.7459 39.7459C56.504 37.9877 58.8886 37 61.375 37H76.375C78.8614 37 81.246 37.9877 83.0041 39.7459C84.7623 41.504 85.75 43.8886 85.75 46.375V53.875C85.7435 54.3703 85.5439 54.8434 85.1937 55.1937C84.8434 55.5439 84.3703 55.7435 83.875 55.75ZM55.75 52H82V46.375C82 44.8832 81.4074 43.4524 80.3525 42.3975C79.2976 41.3426 77.8668 40.75 76.375 40.75H61.375C59.8832 40.75 58.4524 41.3426 57.3975 42.3975C56.3426 43.4524 55.75 44.8832 55.75 46.375V52Z" fill="black"/>
<path d="M42.9107 121.718C42.9107 120.494 43.1867 119.396 43.7387 118.424C44.2907 117.44 45.0407 116.672 45.9887 116.12C46.9487 115.568 48.0107 115.292 49.1747 115.292C50.5427 115.292 51.7367 115.622 52.7567 116.282C53.7767 116.942 54.5207 117.878 54.9887 119.09H53.0267C52.6787 118.334 52.1747 117.752 51.5147 117.344C50.8667 116.936 50.0867 116.732 49.1747 116.732C48.2987 116.732 47.5127 116.936 46.8167 117.344C46.1207 117.752 45.5747 118.334 45.1787 119.09C44.7827 119.834 44.5847 120.71 44.5847 121.718C44.5847 122.714 44.7827 123.59 45.1787 124.346C45.5747 125.09 46.1207 125.666 46.8167 126.074C47.5127 126.482 48.2987 126.686 49.1747 126.686C50.0867 126.686 50.8667 126.488 51.5147 126.092C52.1747 125.684 52.6787 125.102 53.0267 124.346H54.9887C54.5207 125.546 53.7767 126.476 52.7567 127.136C51.7367 127.784 50.5427 128.108 49.1747 128.108C48.0107 128.108 46.9487 127.838 45.9887 127.298C45.0407 126.746 44.2907 125.984 43.7387 125.012C43.1867 124.04 42.9107 122.942 42.9107 121.718ZM62.323 117.956C63.067 117.956 63.739 118.118 64.339 118.442C64.939 118.754 65.407 119.228 65.743 119.864C66.091 120.5 66.265 121.274 66.265 122.186V128H64.645V122.42C64.645 121.436 64.399 120.686 63.907 120.17C63.415 119.642 62.743 119.378 61.891 119.378C61.027 119.378 60.337 119.648 59.821 120.188C59.317 120.728 59.065 121.514 59.065 122.546V128H57.427V114.68H59.065V119.54C59.389 119.036 59.833 118.646 60.397 118.37C60.973 118.094 61.615 117.956 62.323 117.956ZM68.3287 123.032C68.3287 122.024 68.5327 121.142 68.9407 120.386C69.3487 119.618 69.9067 119.024 70.6147 118.604C71.3347 118.184 72.1327 117.974 73.0087 117.974C73.8727 117.974 74.6227 118.16 75.2587 118.532C75.8947 118.904 76.3687 119.372 76.6807 119.936V118.136H78.3367V128H76.6807V126.164C76.3567 126.74 75.8707 127.22 75.2227 127.604C74.5867 127.976 73.8427 128.162 72.9907 128.162C72.1147 128.162 71.3227 127.946 70.6147 127.514C69.9067 127.082 69.3487 126.476 68.9407 125.696C68.5327 124.916 68.3287 124.028 68.3287 123.032ZM76.6807 123.05C76.6807 122.306 76.5307 121.658 76.2307 121.106C75.9307 120.554 75.5227 120.134 75.0067 119.846C74.5027 119.546 73.9447 119.396 73.3327 119.396C72.7207 119.396 72.1627 119.54 71.6587 119.828C71.1547 120.116 70.7527 120.536 70.4527 121.088C70.1527 121.64 70.0027 122.288 70.0027 123.032C70.0027 123.788 70.1527 124.448 70.4527 125.012C70.7527 125.564 71.1547 125.99 71.6587 126.29C72.1627 126.578 72.7207 126.722 73.3327 126.722C73.9447 126.722 74.5027 126.578 75.0067 126.29C75.5227 125.99 75.9307 125.564 76.2307 125.012C76.5307 124.448 76.6807 123.794 76.6807 123.05ZM81.9508 116.534C81.6388 116.534 81.3748 116.426 81.1588 116.21C80.9428 115.994 80.8348 115.73 80.8348 115.418C80.8348 115.106 80.9428 114.842 81.1588 114.626C81.3748 114.41 81.6388 114.302 81.9508 114.302C82.2508 114.302 82.5028 114.41 82.7068 114.626C82.9228 114.842 83.0308 115.106 83.0308 115.418C83.0308 115.73 82.9228 115.994 82.7068 116.21C82.5028 116.426 82.2508 116.534 81.9508 116.534ZM82.7428 118.136V128H81.1048V118.136H82.7428ZM87.1724 119.738C87.4604 119.174 87.8684 118.736 88.3964 118.424C88.9364 118.112 89.5904 117.956 90.3584 117.956V119.648H89.9264C88.0904 119.648 87.1724 120.644 87.1724 122.636V128H85.5344V118.136H87.1724V119.738Z" fill="#0C0D36"/>
</svg>
